<?xml version="1.0" encoding="utf-8"?>
<!-- Generator: Adobe Illustrator 24.2.3, SVG Export Plug-In . SVG Version: 6.00 Build 0)  -->
<svg version="1.1" id="Слой_1" xmlns="http://www.w3.org/2000/svg" xmlns:xlink="http://www.w3.org/1999/xlink" x="0px" y="0px"
	 viewBox="0 0 408.3 89.9" style="enable-background:new 0 0 408.3 89.9;" xml:space="preserve">
<style type="text/css">
	.st0{display:none;}
	.st1{fill:#FFFFFF;}
</style>
<g>
	<path class="st0" d="M408.3,72c0,6.5,0,12.9,0,19.4c-156.7,0-313.5,0-470.2,0c0-34.1,0-68.1,0-102.2c156.7,0,313.5,0,470.2,0
		c0,25.7,0,51.4,0,77.2c-0.1-0.4-0.2-0.8-0.3-1.2c-0.9-5.3-3.4-9.6-7.8-12.7c-5-3.7-10.7-4.5-16.7-3.5c-6.2,1-10.8,4.6-13.8,10
		c-2.5,4.5-3.1,9.4-2.2,14.4c1.3,7.6,5.8,12.8,13.1,15.5c3.6,1.3,7.3,1.4,11,1c3.7-0.4,7.1-1.6,10-3.9c1.6-1.3,3-2.8,4.2-4.5
		c-0.1-0.1-0.1-0.1-0.2-0.2c-2.6-1.2-5.2-2.4-7.7-3.6c-0.2-0.1-0.5,0-0.6,0.1c-3.2,2.9-6.9,4-11.1,3.5c-3.9-0.5-6.8-2.5-8.5-6.1
		c-0.4-0.9-0.7-2-1-3.1C387.3,72,397.8,72,408.3,72z M37.3,62c0,0,0.1,0,0.1,0c0,3.9,0,7.8,0,11.7c0,1.7,0,3.5-0.1,5.2
		c-0.1,1.4-0.9,2-2.3,1.7c-0.2,0-0.3-0.1-0.5-0.1c-7.6-2.5-13.6-7.2-18.3-13.7c-3-4.1-5-8.8-6.1-13.7c-0.4-1.8-0.9-3.5-1.1-5.3
		c-0.2-1.4-0.1-2.9,0.1-4.4c0.2-1.9,0.5-3.8,0.9-5.7c1.4-6.2,4.1-11.9,8.3-16.8c4.5-5.2,10-9.2,16.7-11.2c3-0.9,6.1-1.8,9.3-2
		c3.2-0.2,6.5,0,9.7,0.7c5.2,1.2,10.2,2.9,14.5,6.1c5,3.7,9,8.1,11.8,13.6c0.3,0.6,0.6,1.2,1,1.8c0.5,0.7,1.2,1.2,2.1,1.3
		c1.3,0.1,2.6-0.2,3.7-0.9c1.1-0.7,1.5-1.7,1.2-2.9C88,27,87.8,26.5,87.6,26c-2.4-5.7-6.2-10.4-10.7-14.4c-5.6-5-12-8.6-19.4-10.2
		c-3-0.6-6-1-9-1c-1.7,0-3.4,0.1-5.1,0.1c-1.1,0-2.1,0.1-3.2,0.1c-0.7,0-1.4,0-2,0.2c-2.2,0.6-4.4,1.1-6.6,1.8
		c-2.7,0.8-5.1,2.1-7.5,3.5c-6,3.4-10.9,8.1-14.8,13.8c-3,4.4-5,9.3-6.5,14.4c-1.1,3.5-1.8,7-1.8,10.7c0,1.5,0.3,3,0.4,4.4
		c0.1,2.1,0.6,4,1.1,6c1.4,4.9,3.3,9.7,6,14c3.6,5.7,8.4,10.3,14,14.1c3.8,2.5,8,4.1,12.3,5.4c0.6,0.2,1.2,0.2,1.8,0.2
		c2.7,0,5.4,0,8.1,0c1.2,0,2.5,0,3.7,0c0.2,0,0.5-0.1,0.5-0.2c0.2-0.7,0.5-1.5,0.6-2.2c0.1-1.6-0.1-3.3-0.1-4.9
		c-0.1-10-0.1-20-0.1-29.9c0-1,0-2.1,0-3.1c0-1.6-0.1-3.2,0-4.8c0-1.6,0.8-2.7,2.3-3.3c0.3-0.1,0.7-0.2,1-0.3
		c2.1-0.7,4.3-0.8,6.4-1.3c4.4-0.9,8.8-2,13.2-3.2c1-0.3,2-0.9,2.8-1.5c1.1-0.8,1.4-1.9,1-2.7c-0.4-0.9-1.3-1.3-2.7-1.1
		c-3,0.5-5.9,1-8.9,1.5c-4.8,0.7-9.6,1.4-14.5,2c-3.1,0.4-6.2,0.7-9.4,0.9c-3.8,0.3-7.5,0.6-11.3,0.8c-4.4,0.3-8.9,0.4-13.3,0.7
		c-0.5,0-1,0.1-1.5,0.2c-1,0.3-1.4,0.9-1.1,2c0.4,1.5,1.7,2.7,3.2,2.8c2.5,0.2,5,0.4,7.5,0.5c2.9,0.1,5.8,0,8.8,0
		c0.8,0,1.7,0.1,2.5,0.3c1,0.2,1.6,0.8,1.8,1.8c0.1,0.8,0.2,1.6,0.2,2.4C37.3,51.7,37.3,56.9,37.3,62z M133.8,71.9
		c10.6,0,21.1,0,31.6,0c0.1-2.4,0.1-4.7-0.4-6.9c-1-5.4-3.6-9.8-8.2-12.9c-4.9-3.4-10.3-4.2-16.1-3.3c-6.4,1-11.1,4.6-14.2,10.2
		c-2.5,4.5-3,9.3-2.1,14.3c1.3,7.6,5.7,12.7,12.9,15.4c3.7,1.4,7.5,1.5,11.4,1c4.8-0.6,8.9-2.5,12.2-6.1c0.7-0.7,1.2-1.5,1.9-2.3
		c-2.8-1.3-5.4-2.5-8-3.7c-0.2-0.1-0.5,0-0.7,0.2c-3.4,3.1-7.5,4.1-12,3.3C137.8,80.2,134.2,76.4,133.8,71.9z M236.5,72
		c0.1-2.4,0.1-4.7-0.4-6.9c-0.9-4.9-3.2-9.1-7.2-12.2c-5.1-4-11-5-17.3-4c-6.3,1-10.9,4.7-14,10.2c-2.4,4.4-2.9,9.2-2.1,14.1
		c1.3,7.7,5.8,13,13.2,15.6c3.9,1.4,8,1.4,12,0.7c4.6-0.7,8.5-2.8,11.5-6.3c0.5-0.6,1-1.3,1.6-1.9c-2.8-1.3-5.4-2.6-8.1-3.8
		c-0.1-0.1-0.4,0.1-0.6,0.2c-2.2,2-4.7,3.2-7.7,3.5c-2.6,0.3-5.2,0-7.5-1.4c-3-1.7-4.6-4.4-5.2-7.8C215.4,72,225.9,72,236.5,72z
		 M361.3,71.9c-0.2-2.4-0.2-4.7-0.6-7c-0.9-5.2-3.4-9.5-7.7-12.6c-5-3.6-10.6-4.5-16.6-3.5c-6,1-10.5,4.3-13.6,9.5
		c-2.8,4.6-3.4,9.7-2.5,15c1.2,7.2,5.3,12.3,12,15.1c3.9,1.6,7.9,1.8,12,1.3c4-0.5,7.7-1.8,10.7-4.5c1.3-1.1,2.5-2.4,3.4-3.9
		c-0.1-0.1-0.1-0.1-0.1-0.1c-2.6-1.2-5.2-2.5-7.8-3.7c-0.2-0.1-0.5,0-0.6,0.1c-3.2,2.9-6.9,4-11.1,3.5c-4.4-0.6-7.4-2.9-8.9-7.2
		c-0.2-0.6-0.3-1.3-0.5-2C340,71.9,350.5,71.9,361.3,71.9z M94.3,88.8c0-0.2,0-0.2,0-0.3c0-8.9,0-17.8,0-26.7c0-1.9-0.4-3.8-1.1-5.7
		c-2-5.1-8.2-8.5-14.5-7.5c-3,0.5-5.5,1.9-7.9,3.6c-0.5,0.4-1,0.7-1.6,1.2c0-1.4,0-2.7,0-4c-3.3,0-6.5,0-9.8,0c0,13.1,0,26.2,0,39.3
		c3.3,0,6.5,0,9.8,0c0-0.3,0-0.6,0-0.8c0-5.9,0-11.8,0-17.7c0-1.9,0.2-3.8,0.5-5.7c0.5-2.4,1.7-4.5,3.9-5.9
		c4.2-2.8,9.3-0.8,10.3,4.1c0.3,1.6,0.4,3.2,0.4,4.9c0.1,6.8,0.1,13.5,0.1,20.3c0,0.3,0,0.5,0,0.8C87.9,88.8,91.1,88.8,94.3,88.8z
		 M312,88.8c0-0.2,0-0.3,0-0.4c0-8.9,0-17.7,0-26.6c0-1.9-0.4-3.8-1.1-5.7c-1.8-4.5-6.6-7.6-11.8-7.7c-3.4-0.1-6.4,0.9-9.2,2.8
		c-1,0.7-1.9,1.4-3,2.2c0-1.3,0-2.6,0-3.9c-3.3,0-6.5,0-9.8,0c0,13.1,0,26.2,0,39.3c3.3,0,6.5,0,9.8,0c0-0.3,0-0.6,0-0.8
		c0-5.1,0-10.2,0-15.3c0-2.5,0.1-5,0.4-7.5c0.4-2.7,1.7-5,4-6.5c4-2.7,9.1-1,10.2,3.6c0.4,1.7,0.5,3.6,0.6,5.4
		c0.1,6.8,0.1,13.6,0.1,20.4c0,0.3,0,0.5,0,0.8C305.6,88.8,308.8,88.8,312,88.8z M268.8,55.1c-0.4-0.5-0.8-1-1.2-1.4
		c-0.5-0.6-1.1-1.1-1.7-1.6c-5-3.8-10.5-4.9-16.3-2.3c-7.4,3.3-8.8,12-3.5,17.5c1.9,2,4.1,3.4,6.5,4.6c1.6,0.8,3.3,1.6,4.8,2.6
		c0.8,0.5,1.5,1.1,2,1.8c1,1.2,0.8,2.5-0.3,3.6c-1.2,1.1-2.7,1.4-4.3,1.1c-2-0.3-3.7-1.2-5.2-2.5c-0.8-0.6-1.4-1.3-2.2-1.9
		c-2,2.2-4,4.3-6,6.5c1.6,2.1,3.5,3.7,5.7,4.9c3.6,1.8,7.4,2.2,11.4,1.5c6.2-1,10.4-5.5,10.8-10.8c0.2-3-0.4-5.7-2.2-8.1
		c-1.6-2.1-3.7-3.5-5.9-4.7c-2.1-1.1-4.2-2.1-6.3-3.2c-0.7-0.4-1.4-0.8-2-1.3c-1.1-1-1-2.6,0.3-3.3c0.6-0.4,1.4-0.6,2.1-0.7
		c1.8-0.2,3.4,0.6,4.8,1.6c0.8,0.6,1.6,1.3,2.4,2C264.6,59.1,266.6,57.1,268.8,55.1z M100,57.9c1.7,0,3.3,0,5,0
		c0,10.3,0,20.6,0,30.9c3.3,0,6.5,0,9.8,0c0-10.3,0-20.6,0-30.9c2,0,3.9,0,5.8,0c0-2.8,0-5.6,0-8.4c-2,0-3.9,0-5.8,0
		c0-4.8,0-9.6,0-14.4c-3.3,0-6.5,0-9.8,0c0,4.8,0,9.6,0,14.4c-1.7,0-3.4,0-5,0C100,52.3,100,55.1,100,57.9z M192.3,49.5
		c-2.4-1.2-4.8-1.4-7.3-0.4c-2.4,1-4.1,2.8-5.2,5.1c0,0-0.1-0.1-0.1-0.1c0-1.5,0-3.1,0-4.6c-2.8,0-5.6,0-8.3,0c0,13.1,0,26.2,0,39.3
		c3.2,0,6.5,0,9.7,0c0-0.2,0-0.3,0-0.5c0-5.7,0-11.3,0-17c0-2.8,0.1-5.7,0.6-8.5c0.4-1.9,1-3.6,2.5-4.9c0.9-0.8,2-1.1,3.1-0.8
		c0.7,0.2,1.3,0.4,2,0.7c0-0.1,0.1-0.1,0.1-0.2C190.3,55,191.3,52.3,192.3,49.5z M43.3,15c-4.1,0.1-7.1,3.2-7.1,7.1
		c0,3.9,3,7.1,7.1,7.2c3.9,0.1,7.2-3.2,7.2-7.1C50.5,18.2,47.3,15,43.3,15z"/>
	<path class="st1" d="M408.3,72c-10.5,0-21,0-31.7,0c0.4,1.1,0.6,2.1,1,3.1c1.7,3.6,4.6,5.6,8.5,6.1c4.2,0.5,7.9-0.6,11.1-3.5
		c0.1-0.1,0.5-0.2,0.6-0.1c2.6,1.2,5.2,2.4,7.7,3.6c0.1,0,0.1,0.1,0.2,0.2c-1.2,1.7-2.6,3.2-4.2,4.5c-2.9,2.3-6.3,3.5-10,3.9
		c-3.7,0.4-7.4,0.3-11-1c-7.3-2.6-11.7-7.8-13.1-15.5c-0.9-5-0.3-9.9,2.2-14.4c3-5.4,7.6-8.9,13.8-10c6-1,11.7-0.2,16.7,3.5
		c4.3,3.2,6.8,7.5,7.8,12.7c0.1,0.4,0.2,0.8,0.3,1.2C408.3,68.2,408.3,70.1,408.3,72z M398.5,64.2c-0.8-3.5-4.8-7.5-10.8-7.3
		c-5.4,0.2-8.9,3-10.4,7.3C384.3,64.2,391.4,64.2,398.5,64.2z"/>
	<path class="st1" d="M37.3,62c0-5.2,0-10.3,0-15.5c0-0.8-0.1-1.6-0.2-2.4c-0.2-1-0.8-1.6-1.8-1.8c-0.8-0.2-1.7-0.2-2.5-0.3
		c-2.9,0-5.9,0-8.8,0c-2.5-0.1-5-0.3-7.5-0.5c-1.5-0.1-2.8-1.3-3.2-2.8c-0.3-1,0.1-1.7,1.1-2c0.5-0.1,1-0.2,1.5-0.2
		c4.4-0.2,8.9-0.4,13.3-0.7c3.8-0.2,7.5-0.5,11.3-0.8c3.1-0.2,6.3-0.5,9.4-0.9c4.8-0.6,9.7-1.3,14.5-2c3-0.4,5.9-1,8.9-1.5
		c1.4-0.2,2.3,0.2,2.7,1.1c0.4,0.9,0.1,2-1,2.7c-0.9,0.6-1.8,1.2-2.8,1.5c-4.4,1.1-8.8,2.2-13.2,3.2c-2.1,0.5-4.3,0.6-6.4,1.3
		c-0.3,0.1-0.7,0.2-1,0.3c-1.5,0.6-2.3,1.7-2.3,3.3c0,1.6,0,3.2,0,4.8c0,1,0,2.1,0,3.1c0,10,0.1,20,0.1,29.9c0,1.6,0.1,3.3,0.1,4.9
		c0,0.7-0.3,1.5-0.6,2.2c0,0.1-0.4,0.2-0.5,0.2c-1.2,0-2.5,0-3.7,0c-2.7,0-5.4,0-8.1,0c-0.6,0-1.2-0.1-1.8-0.2
		c-4.3-1.3-8.5-2.9-12.3-5.4c-5.6-3.7-10.4-8.3-14-14.1c-2.7-4.4-4.6-9.1-6-14c-0.6-2-1-3.9-1.1-6c-0.1-1.5-0.3-3-0.4-4.4
		c-0.1-3.7,0.7-7.2,1.8-10.7c1.5-5.1,3.5-10,6.5-14.4C13.1,14.2,18,9.5,24,6.1c2.4-1.4,4.9-2.7,7.5-3.5c2.2-0.7,4.4-1.3,6.6-1.8
		c0.6-0.2,1.4-0.1,2-0.2c1.1-0.1,2.1-0.1,3.2-0.1c1.7-0.1,3.4-0.1,5.1-0.1c3,0,6,0.3,9,1c7.4,1.6,13.8,5.2,19.4,10.2
		c4.5,4,8.3,8.7,10.7,14.4c0.2,0.5,0.4,1,0.6,1.6c0.3,1.2-0.1,2.2-1.2,2.9c-1.1,0.7-2.4,1-3.7,0.9c-0.9-0.1-1.6-0.6-2.1-1.3
		c-0.4-0.6-0.7-1.2-1-1.8c-2.8-5.5-6.8-10-11.8-13.6c-4.4-3.2-9.3-4.9-14.5-6.1c-3.2-0.7-6.4-0.9-9.7-0.7c-3.2,0.2-6.3,1.1-9.3,2
		c-6.7,2-12.1,6-16.7,11.2C14,25.8,11.4,31.5,10,37.7c-0.4,1.9-0.7,3.8-0.9,5.7c-0.2,1.4-0.3,2.9-0.1,4.4c0.2,1.8,0.7,3.6,1.1,5.3
		c1.1,5,3.2,9.6,6.1,13.7c4.6,6.5,10.7,11.1,18.3,13.7c0.2,0.1,0.3,0.1,0.5,0.1c1.4,0.3,2.3-0.3,2.3-1.7c0.1-1.7,0.1-3.5,0.1-5.2
		c0-3.9,0-7.8,0-11.7C37.4,62,37.3,62,37.3,62z"/>
	<path class="st1" d="M133.8,71.9c0.4,4.4,4,8.3,8.4,9.1c4.5,0.8,8.6-0.2,12-3.3c0.2-0.1,0.5-0.2,0.7-0.2c2.6,1.2,5.2,2.4,8,3.7
		c-0.7,0.8-1.2,1.6-1.9,2.3c-3.3,3.6-7.4,5.5-12.2,6.1c-3.9,0.5-7.7,0.4-11.4-1c-7.2-2.7-11.6-7.8-12.9-15.4
		c-0.9-4.9-0.3-9.8,2.1-14.3c3.1-5.6,7.8-9.2,14.2-10.2c5.7-0.9,11.2-0.1,16.1,3.3c4.5,3.1,7.1,7.5,8.2,12.9
		c0.4,2.3,0.5,4.6,0.4,6.9C154.9,71.9,144.4,71.9,133.8,71.9z M155.5,64.2c-0.6-3.1-4.1-7-9.5-7.3c-5.9-0.3-9.9,2.5-11.7,7.3
		C141.3,64.2,148.4,64.2,155.5,64.2z"/>
	<path class="st1" d="M236.5,72c-10.6,0-21.1,0-31.7,0c0.6,3.4,2.2,6.1,5.2,7.8c2.3,1.3,4.9,1.6,7.5,1.4c3-0.3,5.5-1.5,7.7-3.5
		c0.1-0.1,0.4-0.2,0.6-0.2c2.7,1.2,5.3,2.5,8.1,3.8c-0.5,0.7-1,1.3-1.6,1.9c-3.1,3.5-6.9,5.6-11.5,6.3c-4.1,0.6-8.1,0.6-12-0.7
		c-7.4-2.6-11.9-7.8-13.2-15.6c-0.8-4.9-0.3-9.7,2.1-14.1c3-5.6,7.6-9.2,14-10.2c6.3-1,12.2-0.1,17.3,4c4,3.1,6.2,7.3,7.2,12.2
		C236.6,67.3,236.6,69.6,236.5,72z M226.6,64.2c-0.8-3.5-4.6-7.2-9.9-7.3c-6.1-0.2-9.7,2.9-11.3,7.3
		C212.4,64.2,219.5,64.2,226.6,64.2z"/>
	<path class="st1" d="M361.3,71.9c-10.8,0-21.3,0-31.9,0c0.2,0.7,0.3,1.4,0.5,2c1.5,4.2,4.5,6.6,8.9,7.2c4.2,0.5,7.9-0.6,11.1-3.5
		c0.1-0.1,0.5-0.2,0.6-0.1c2.6,1.2,5.2,2.4,7.8,3.7c0,0,0,0.1,0.1,0.1c-1,1.4-2.1,2.7-3.4,3.9c-3.1,2.7-6.7,4.1-10.7,4.5
		c-4.1,0.5-8.2,0.3-12-1.3c-6.7-2.8-10.8-7.9-12-15.1c-0.9-5.2-0.3-10.3,2.5-15c3.1-5.2,7.6-8.5,13.6-9.5c6-1,11.6-0.1,16.6,3.5
		c4.3,3.1,6.8,7.4,7.7,12.6C361,67.2,361.1,69.5,361.3,71.9z M351.1,64.2c-0.8-3.4-4.4-7.1-9.8-7.3c-6.1-0.2-9.8,2.8-11.5,7.3
		C337,64.2,344,64.2,351.1,64.2z"/>
	<path class="st1" d="M94.3,88.8c-3.2,0-6.4,0-9.7,0c0-0.3,0-0.6,0-0.8c0-6.8,0-13.5-0.1-20.3c0-1.6-0.1-3.3-0.4-4.9
		c-1-4.9-6.1-6.9-10.3-4.1c-2.1,1.4-3.4,3.5-3.9,5.9c-0.4,1.9-0.5,3.8-0.5,5.7c-0.1,5.9,0,11.8,0,17.7c0,0.3,0,0.5,0,0.8
		c-3.3,0-6.5,0-9.8,0c0-13.1,0-26.2,0-39.3c3.2,0,6.5,0,9.8,0c0,1.3,0,2.6,0,4c0.6-0.5,1.1-0.8,1.6-1.2c2.3-1.8,4.9-3.2,7.9-3.6
		c6.4-1.1,12.5,2.4,14.5,7.5c0.7,1.8,1.1,3.7,1.1,5.7c0,8.9,0,17.8,0,26.7C94.3,88.6,94.3,88.7,94.3,88.8z"/>
	<path class="st1" d="M312,88.8c-3.2,0-6.4,0-9.7,0c0-0.3,0-0.6,0-0.8c0-6.8,0-13.6-0.1-20.4c0-1.8-0.1-3.6-0.6-5.4
		c-1.1-4.5-6.2-6.3-10.2-3.6c-2.3,1.6-3.6,3.9-4,6.5c-0.4,2.5-0.4,5-0.4,7.5c-0.1,5.1,0,10.2,0,15.3c0,0.3,0,0.5,0,0.8
		c-3.3,0-6.5,0-9.8,0c0-13.1,0-26.1,0-39.3c3.2,0,6.5,0,9.8,0c0,1.3,0,2.6,0,3.9c1-0.8,2-1.5,3-2.2c2.8-1.9,5.8-2.9,9.2-2.8
		c5.2,0.1,10,3.2,11.8,7.7c0.7,1.8,1.1,3.7,1.1,5.7c0,8.9,0,17.7,0,26.6C312,88.5,312,88.7,312,88.8z"/>
	<path class="st1" d="M268.8,55.1c-2.1,2-4.1,4-6.2,6c-0.8-0.6-1.5-1.3-2.4-2c-1.4-1-3-1.8-4.8-1.6c-0.7,0.1-1.5,0.3-2.1,0.7
		c-1.3,0.8-1.4,2.4-0.3,3.3c0.6,0.5,1.3,0.9,2,1.3c2.1,1.1,4.2,2.1,6.3,3.2c2.2,1.2,4.4,2.6,5.9,4.7c1.8,2.4,2.4,5.1,2.2,8.1
		c-0.4,5.3-4.6,9.8-10.8,10.8c-3.9,0.6-7.7,0.3-11.4-1.5c-2.3-1.2-4.2-2.8-5.7-4.9c2-2.2,4-4.4,6-6.5c0.7,0.7,1.4,1.3,2.2,1.9
		c1.6,1.2,3.3,2.2,5.2,2.5c1.6,0.2,3.1,0,4.3-1.1c1.1-1,1.3-2.4,0.3-3.6c-0.6-0.7-1.3-1.4-2-1.8c-1.6-0.9-3.2-1.7-4.8-2.6
		c-2.4-1.2-4.7-2.7-6.5-4.6c-5.3-5.5-3.9-14.2,3.5-17.5c5.8-2.6,11.3-1.5,16.3,2.3c0.6,0.5,1.1,1,1.7,1.6
		C268,54.1,268.3,54.6,268.8,55.1z"/>
	<path class="st1" d="M100,57.9c0-2.8,0-5.6,0-8.4c1.7,0,3.3,0,5,0c0-4.8,0-9.6,0-14.4c3.3,0,6.5,0,9.8,0c0,4.8,0,9.6,0,14.4
		c2,0,3.9,0,5.8,0c0,2.8,0,5.6,0,8.4c-1.9,0-3.8,0-5.8,0c0,10.3,0,20.6,0,30.9c-3.3,0-6.5,0-9.8,0c0-10.3,0-20.6,0-30.9
		C103.4,57.9,101.7,57.9,100,57.9z"/>
	<path class="st1" d="M192.3,49.5c-1,2.8-2,5.5-3,8.2c0,0.1-0.1,0.1-0.1,0.2c-0.7-0.2-1.3-0.5-2-0.7c-1.2-0.3-2.2,0-3.1,0.8
		c-1.5,1.3-2.2,3-2.5,4.9c-0.5,2.8-0.6,5.6-0.6,8.5c0,5.7,0,11.3,0,17c0,0.1,0,0.3,0,0.5c-3.2,0-6.5,0-9.7,0c0-13.1,0-26.2,0-39.3
		c2.8,0,5.5,0,8.3,0c0,1.5,0,3.1,0,4.6c0,0,0.1,0.1,0.1,0.1c1.2-2.3,2.8-4.2,5.2-5.1C187.5,48.1,189.9,48.3,192.3,49.5z"/>
	<path class="st1" d="M43.3,15c3.9,0,7.2,3.2,7.1,7.2c0,3.9-3.3,7.2-7.2,7.1c-4.1-0.1-7.1-3.3-7.1-7.2C36.2,18.2,39.3,15.1,43.3,15z
		"/>
	<path class="st0" d="M398.5,64.2c-7.1,0-14.1,0-21.2,0c1.5-4.3,5-7.2,10.4-7.3C393.7,56.7,397.7,60.7,398.5,64.2z"/>
	<path class="st0" d="M155.5,64.2c-7.1,0-14.1,0-21.2,0c1.8-4.8,5.7-7.6,11.7-7.3C151.4,57.2,154.8,61.1,155.5,64.2z"/>
	<path class="st0" d="M226.6,64.2c-7.1,0-14.2,0-21.2,0c1.6-4.4,5.3-7.5,11.3-7.3C222,57,225.8,60.7,226.6,64.2z"/>
	<path class="st0" d="M351.1,64.2c-7.1,0-14.2,0-21.2,0c1.6-4.5,5.4-7.6,11.5-7.3C346.7,57.1,350.4,60.8,351.1,64.2z"/>
</g>
</svg>
